<?xml version="1.0" standalone="no"?>
<!DOCTYPE svg PUBLIC "-//W3C//DTD SVG 20010904//EN"
 "http://www.w3.org/TR/2001/REC-SVG-20010904/DTD/svg10.dtd">
<svg version="1.0" xmlns="http://www.w3.org/2000/svg"
 width="300.000000pt" height="300.000000pt" viewBox="0 0 300.000000 300.000000"
 preserveAspectRatio="xMidYMid meet">
<metadata>
Created by potrace 1.11, written by Peter Selinger 2001-2013
</metadata>
<g transform="translate(0.000000,300.000000) scale(0.100000,-0.100000)"
fill="#000000" stroke="none">
<path d="M2275 2553 c-88 -8 -166 -22 -202 -38 -132 -57 -165 -75 -228 -120
-38 -27 -114 -94 -169 -147 -54 -54 -105 -98 -113 -98 -17 0 -240 174 -262
203 -7 10 -23 22 -35 28 -11 5 -28 13 -36 17 -39 22 -61 31 -101 42 -24 7 -51
18 -59 26 -20 17 -193 47 -239 41 -91 -12 -176 -40 -296 -97 -72 -34 -141 -67
-154 -73 -26 -13 -174 -167 -194 -202 -35 -62 -77 -150 -88 -183 -6 -20 -22
-59 -35 -87 -69 -152 -68 -286 2 -412 19 -34 34 -73 34 -87 0 -14 5 -26 10
-26 6 0 10 -7 10 -16 0 -26 121 -157 200 -216 102 -76 255 -162 347 -193 42
-15 86 -33 98 -41 12 -8 41 -18 66 -23 24 -5 76 -19 114 -31 39 -12 113 -33
165 -45 97 -24 168 -56 230 -103 42 -33 95 -66 135 -85 52 -24 176 -108 182
-123 3 -8 18 -14 34 -14 24 0 31 7 48 45 11 25 25 45 30 45 6 0 11 6 11 13 0
7 24 36 53 64 49 47 107 89 382 273 61 40 128 86 150 101 52 35 207 112 262
130 12 4 94 82 191 182 60 61 64 68 77 138 17 90 25 119 35 119 4 0 12 26 19
58 7 31 17 71 22 89 5 17 10 101 11 185 1 123 -2 160 -14 186 -9 17 -20 46
-23 64 -15 67 -81 162 -162 232 -103 89 -197 141 -304 166 -82 19 -113 21
-204 13z m-195 -1001 c0 -4 -9 -8 -21 -9 -17 -2 -18 1 -9 12 12 14 30 12 30
-3z"/>
</g>
</svg>
